
<svg xmlns="http://www.w3.org/2000/svg" fill="none" viewBox="0 0 200 200"><path fill="#F0F2F3" d="M28.36 29.3H190c2.78 0 4.99 2.82 4.99 6.31v144.64c0 3.47-2.24 6.3-5 6.3H28.37c-2.78 0-5-2.82-5-6.3V35.6c0-3.49 2.23-6.31 5-6.31Z"/><path fill="#fff" stroke="#D9DBDF" stroke-width="2.5" d="m10.66 22.36 160.75-7.48a4.86 4.86 0 0 1 5.2 4.51l6.86 147.53a4.85 4.85 0 0 1-4.75 4.98l-160.75 7.5a4.86 4.86 0 0 1-5.2-4.52L5.92 27.34a4.86 4.86 0 0 1 4.75-4.98Z"/><path fill="#AECBFA" d="M162.14 109.7 27.04 116a4.38 4.38 0 0 0-4.18 4.58l.52 10.98a4.37 4.37 0 0 0 4.57 4.17l135.1-6.3a4.38 4.38 0 0 0 4.17-4.57l-.51-10.99a4.37 4.37 0 0 0-4.57-4.17Z"/><path fill="#5285EB" d="m158.66 117.5-128.7 6a2.25 2.25 0 0 0 .2 4.5l128.7-6a2.25 2.25 0 0 0-.2-4.5Z"/><path fill="#D9DBDF" d="M138.68 136.33 30.8 141.36a2.25 2.25 0 0 0 .21 4.5l107.9-5.04a2.25 2.25 0 0 0-.22-4.49Zm-24.94 14.57-82.32 3.84a2.25 2.25 0 0 0 .2 4.5l82.33-3.84a2.25 2.25 0 1 0-.2-4.5Z"/><path fill="#F7F8F9" d="m26.68 103.98 135.97-6.33-3.09-66.39L23.6 37.6l3.09 66.4Z"/><path fill="#D9DBDF" d="m25.8 85.19.88 18.8 135.97-6.34-1.09-23.5-31.45-14.96a27.38 27.38 0 0 0-13.28-2.3c-4.5.19-8.88 1.53-12.72 3.89L79.67 76.83a13.14 13.14 0 0 1-12.05 1.23l-11.57-4.58a17.95 17.95 0 0 0-8.33-1 16.44 16.44 0 0 0-7.6 2.64L25.8 85.2Zm35.91-25.75a6.38 6.38 0 1 0-.6-12.75 6.38 6.38 0 0 0 .6 12.75Z"/><path stroke="#5285EB" stroke-miterlimit="10" stroke-width="3" d="m159.5 104.98 11.34-.54m-9.95 30.21 11.35-.53m-7.08-29.02 1.37 28.85"/></svg>
